<svg width="50" height="31" viewBox="0 0 50 31" fill="none" xmlns="http://www.w3.org/2000/svg">
<g clip-path="url(#clip0_1_3)">
<g clip-path="url(#clip1_1_3)">
<g clip-path="url(#clip2_1_3)">
<g clip-path="url(#clip3_1_3)">
<g clip-path="url(#clip4_1_3)">
<g clip-path="url(#clip5_1_3)">
<g clip-path="url(#clip6_1_3)">
<g clip-path="url(#clip7_1_3)">
<g clip-path="url(#clip8_1_3)">
<g clip-path="url(#clip9_1_3)">
<path d="M12.885 19.8155H9.54645V19.04L10.5878 18.8688V11.8188L9.54645 11.6451V10.8646H10.5878H11.8568L16.4199 17.8415L16.4565 17.8289V11.8188L15.3131 11.6451V10.8646H17.613H18.6543V11.6451L17.613 11.8188V19.8155H16.4644L11.7809 12.8008L11.7417 12.8134V18.8688L12.885 19.04V19.8155ZM22.9349 19.8155H19.5936V19.04L20.635 18.8688V11.1793L19.5936 11.0056V10.225H21.8935V18.8688L22.9349 19.04V19.8155ZM27.1552 19.8155H24.0311V19.04L24.735 18.9619L24.7167 18.9367L22.7177 16.4542L23.3692 15.4873L26.1583 18.8939L27.1552 19.04V19.8155ZM25.7188 14.105L21.8019 17.8918L21.3362 16.9376L24.3399 14.0622L24.3713 14.0244L23.6308 13.9439V13.1633H26.6057V13.9439L25.7188 14.105Z" fill="#00EBFF"/>
</g>
</g>
</g>
</g>
<g clip-path="url(#clip10_1_3)">
<g clip-path="url(#clip11_1_3)">
<path d="M34.9599 9.75798C36.4157 10.7226 38.7368 11.1903 39.7263 11.3543C39.764 11.688 39.7832 12.0196 39.7832 12.3442C39.7832 15.6709 37.9408 18.7162 34.9529 20.3669C31.9648 18.7157 30.1222 15.6705 30.1222 12.3442C30.1222 12.0229 30.1414 11.6938 30.1791 11.3607C31.1894 11.2062 33.5557 10.7548 34.9599 9.75798ZM34.9434 9.001C33.4643 10.4094 29.6328 10.8406 29.6328 10.8406C29.5542 11.3315 29.5102 11.8326 29.5102 12.3442C29.5102 16.1155 31.7169 19.3881 34.9528 21.0395C38.1891 19.388 40.3951 16.1155 40.3951 12.3442C40.3951 11.8326 40.3518 11.3315 40.2734 10.8406C40.2734 10.8406 36.5425 10.3662 34.9434 9.001Z" fill="#00EBFF"/>
<path d="M31.2778 12.1328C31.2234 12.4728 31.1931 12.8192 31.1931 13.1727C31.1931 15.777 32.7181 18.0371 34.9528 19.1777C37.1875 18.0369 38.7123 15.777 38.7123 13.1727C38.7123 12.8192 38.6814 12.4728 38.6279 12.1328C38.6279 12.1328 36.0506 11.8055 34.946 10.8626C33.9242 11.8351 31.2778 12.1328 31.2778 12.1328Z" fill="#00EBFF"/>
</g>
</g>
</g>
</g>
</g>
<path d="M31.0351 0.00809707C39.6507 0.00809707 46.6352 6.72931 46.6352 15.0202C46.6352 23.3112 39.6507 30.0324 31.0351 30.0324C25.1099 30.0324 19.9563 26.8536 17.3153 22.1715H17.829C20.4275 26.6057 25.3679 29.6 31.0351 29.6C39.4026 29.6 46.1859 23.0724 46.1857 15.0202C46.1857 6.9681 39.4025 0.440486 31.0351 0.440486C25.3679 0.440486 20.4275 3.43478 17.829 7.86895H17.3153C19.9562 3.18688 25.1099 0.00809707 31.0351 0.00809707Z" fill="#00EBFF"/>
</g>
</g>
</g>
<defs>
<clipPath id="clip0_1_3">
<rect width="50" height="30" fill="white" transform="translate(-0.030303 0.0202429)"/>
</clipPath>
<clipPath id="clip1_1_3">
<rect width="49.9204" height="30.0243" fill="white" transform="translate(0.00950246 0.00809706)"/>
</clipPath>
<clipPath id="clip2_1_3">
<rect width="49.9204" height="30.0243" fill="white" transform="translate(0.00950246 0.00809706)"/>
</clipPath>
<clipPath id="clip3_1_3">
<rect width="30.8508" height="12.0385" fill="white" transform="translate(9.5443 9.00102)"/>
</clipPath>
<clipPath id="clip4_1_3">
<rect width="30.8508" height="12.0385" fill="white" transform="translate(9.5443 9.00102)"/>
</clipPath>
<clipPath id="clip5_1_3">
<rect width="30.8508" height="12.0385" fill="white" transform="translate(9.5443 9.00102)"/>
</clipPath>
<clipPath id="clip6_1_3">
<rect width="17.6131" height="9.59046" fill="white" transform="translate(9.54426 10.225)"/>
</clipPath>
<clipPath id="clip7_1_3">
<rect width="17.6131" height="9.59046" fill="white" transform="translate(9.54426 10.225)"/>
</clipPath>
<clipPath id="clip8_1_3">
<rect width="17.6131" height="9.59046" fill="white" transform="translate(9.54426 10.225)"/>
</clipPath>
<clipPath id="clip9_1_3">
<rect width="17.6131" height="9.59046" fill="white" transform="translate(9.54426 10.225)"/>
</clipPath>
<clipPath id="clip10_1_3">
<rect width="10.8849" height="12.0385" fill="white" transform="translate(29.5102 9.001)"/>
</clipPath>
<clipPath id="clip11_1_3">
<rect width="10.8849" height="12.0385" fill="white" transform="translate(29.5102 9.001)"/>
</clipPath>
</defs>
</svg>
